<?xml version="1.0" encoding="UTF-8"?>
<svg width="217px" height="36px" viewBox="0 0 217 36" version="1.1" xmlns="http://www.w3.org/2000/svg" xmlns:xlink="http://www.w3.org/1999/xlink">
    <!-- Generator: Sketch 59.1 (86144) - https://sketch.com -->
    <title>logo_white</title>
    <desc>Created with Sketch.</desc>
    <defs>
        <filter x="-1.9%" y="-12.1%" width="103.7%" height="124.2%" filterUnits="objectBoundingBox" id="filter-1">
            <feOffset dx="0" dy="1" in="SourceAlpha" result="shadowOffsetOuter1"></feOffset>
            <feGaussianBlur stdDeviation="0.5" in="shadowOffsetOuter1" result="shadowBlurOuter1"></feGaussianBlur>
            <feColorMatrix values="0 0 0 0 0   0 0 0 0 0   0 0 0 0 0  0 0 0 0.25 0" type="matrix" in="shadowBlurOuter1" result="shadowMatrixOuter1"></feColorMatrix>
            <feMerge>
                <feMergeNode in="shadowMatrixOuter1"></feMergeNode>
                <feMergeNode in="SourceGraphic"></feMergeNode>
            </feMerge>
        </filter>
    </defs>
    <g id="logo_white" stroke="none" stroke-width="1" fill="none" fill-rule="evenodd">
        <g id="Group" filter="url(#filter-1)" transform="translate(1.469388, 0.000000)" fill="#FFFFFF">
            <path d="M28.7004307,0.00405546424 C30.4156193,-0.00662246922 30.3727132,0.00677347476 30.3667523,0.0102034101 C31.6047432,0.0109302849 32.834307,0.149243016 34.0638892,0.425872627 C35.2934715,0.702502239 36.3923941,1.16354468 37.3606901,1.80901377 C38.3289861,2.45448286 39.112833,3.29972733 39.7122543,4.34477253 C40.3116757,5.38981773 40.6113818,6.69610463 40.6113818,8.26367243 C40.6113818,10.0771332 40.0888172,11.5985733 39.0436723,12.8280382 C37.9985274,14.0575031 36.6152682,14.9027476 34.8938531,15.363797 C35.938998,15.5789529 36.9072795,15.8478943 37.7987266,16.2628387 C38.6901737,16.6777831 39.458651,17.22335 40.1041817,17.8995557 C40.7497124,18.5757614 41.2492227,19.3749017 41.6027275,20.2970004 C41.9562324,21.2190991 42.1329822,22.2487605 42.1329822,23.3860156 C42.1329822,24.9535834 41.8102217,26.3213426 41.1646911,27.4893343 C40.5191604,28.657326 39.9723165,29.3877551 38.5364722,30.3708783 C35.1605265,32.68239 30.789487,32.6530612 29.7091541,32.6530612 L8.64266302,32.6530612 C8.57223817,32.6530612 8.50244542,32.6522048 8.43328808,32.6505047 L8.21121009,32.6530612 C3.67628398,32.6530612 -7.10542736e-15,28.9771279 -7.10542736e-15,24.4426344 C-7.10542736e-15,20.3762853 2.95638364,17.0003707 6.83719915,16.3466487 C6.50113489,15.5332381 6.31631545,14.6411616 6.31631545,13.7059223 C6.31631545,9.86904314 9.42701728,6.75863803 13.2642625,6.75863803 C14.8110172,6.75863803 16.2397221,7.26402118 17.3942276,8.11865281 L17.5324279,7.76884754 L17.5324279,7.76884754 L17.6856839,7.39020923 C19.7633815,2.31187625 24.8881057,0.00405547037 28.7004307,0.00405546424 Z" id="logo__icon"></path>
            <path d="M56.860771,26.3582766 L56.860771,12.0907029 L62.1088435,12.0907029 C63.5721917,12.0907029 64.7461785,12.4132999 65.630839,13.0585034 C66.5154995,13.7037069 66.9578231,14.6249373 66.9578231,15.8222222 C66.9578231,16.4341678 66.8114905,17.0161726 66.5188209,17.568254 C66.2261512,18.1203353 65.8204108,18.549356 65.3015873,18.8553288 L65.3015873,18.8952381 C66.0598677,19.1213919 66.621918,19.5371096 66.9877551,20.1424036 C67.3535922,20.7476977 67.5365079,21.4028687 67.5365079,22.1079365 C67.5365079,23.5579816 67.0243437,24.6288703 66,25.3206349 C64.9756563,26.0123995 63.6786171,26.3582766 62.1088435,26.3582766 L56.860771,26.3582766 Z M60.3528345,17.6181406 L62.1487528,17.6181406 C62.561151,17.6181406 62.8737707,17.4917624 63.0866213,17.2390023 C63.299472,16.9862421 63.4058957,16.6736224 63.4058957,16.3011338 C63.4058957,15.9419483 63.2961462,15.6492831 63.076644,15.4231293 C62.8571418,15.1969754 62.5278934,15.0839002 62.0888889,15.0839002 L60.3528345,15.0839002 L60.3528345,17.6181406 Z M60.3528345,23.3650794 L62.4480726,23.3650794 C62.9269865,23.3650794 63.2994696,23.2220725 63.5655329,22.9360544 C63.8315962,22.6500364 63.9646259,22.294182 63.9646259,21.8684807 C63.9646259,21.4427794 63.8382477,21.0935766 63.5854875,20.8208617 C63.3327274,20.5481468 62.9602443,20.4117914 62.4680272,20.4117914 L60.3528345,20.4117914 L60.3528345,23.3650794 Z M70.5297052,25.1210884 C69.4122393,24.123351 68.8535147,22.8329633 68.8535147,21.2498866 C68.8535147,19.6668099 69.4122393,18.3697707 70.5297052,17.3587302 C71.6471711,16.3476896 73.0240281,15.8421769 74.6603175,15.8421769 C76.30991,15.8421769 77.6967442,16.3443638 78.8208617,17.3487528 C79.9449792,18.3531418 80.5070295,19.6535068 80.5070295,21.2498866 C80.5070295,22.8329633 79.9483049,24.1200253 78.830839,25.1111111 C77.7133731,26.1021969 76.3298646,26.5977324 74.6802721,26.5977324 C73.0306796,26.5977324 71.6471711,26.1055227 70.5297052,25.1210884 Z M72.3455782,21.2498866 C72.3455782,21.9948639 72.5717287,22.5934974 73.0240363,23.045805 C73.4763439,23.4981126 74.028417,23.724263 74.6802721,23.724263 C75.3321272,23.724263 75.8842003,23.4981126 76.3365079,23.045805 C76.7888156,22.5934974 77.014966,21.9948639 77.014966,21.2498866 C77.014966,20.4916062 76.7888156,19.8796698 76.3365079,19.414059 C75.8842003,18.9484482 75.3321272,18.7156463 74.6802721,18.7156463 C74.028417,18.7156463 73.4763439,18.9484482 73.0240363,19.414059 C72.5717287,19.8796698 72.3455782,20.4916062 72.3455782,21.2498866 Z M83.2208617,25.1210884 C82.1033958,24.123351 81.5446712,22.8329633 81.5446712,21.2498866 C81.5446712,19.6668099 82.1033958,18.3697707 83.2208617,17.3587302 C84.3383276,16.3476896 85.7151846,15.8421769 87.3514739,15.8421769 C89.0010664,15.8421769 90.3879007,16.3443638 91.5120181,17.3487528 C92.6361356,18.3531418 93.1981859,19.6535068 93.1981859,21.2498866 C93.1981859,22.8329633 92.6394614,24.1200253 91.5219955,25.1111111 C90.4045296,26.1021969 89.0210211,26.5977324 87.3714286,26.5977324 C85.721836,26.5977324 84.3383276,26.1055227 83.2208617,25.1210884 Z M85.0367347,21.2498866 C85.0367347,21.9948639 85.2628851,22.5934974 85.7151927,23.045805 C86.1675004,23.4981126 86.7195735,23.724263 87.3714286,23.724263 C88.0232837,23.724263 88.5753568,23.4981126 89.0276644,23.045805 C89.479972,22.5934974 89.7061224,21.9948639 89.7061224,21.2498866 C89.7061224,20.4916062 89.479972,19.8796698 89.0276644,19.414059 C88.5753568,18.9484482 88.0232837,18.7156463 87.3714286,18.7156463 C86.7195735,18.7156463 86.1675004,18.9484482 85.7151927,19.414059 C85.2628851,19.8796698 85.0367347,20.4916062 85.0367347,21.2498866 Z M94.9941043,26.3582766 L94.9941043,12.0907029 L98.4462585,12.0907029 L98.4462585,19.4739229 L99.4240363,19.4739229 L101.45941,16.0816327 L105.210884,16.0816327 L102.197732,20.7510204 L102.197732,20.7909297 L105.629932,26.3582766 L101.698866,26.3582766 L99.5238095,22.3673469 L98.4462585,22.3673469 L98.4462585,26.3582766 L94.9941043,26.3582766 Z M106.986848,14.7845805 L106.986848,12.0907029 L110.359184,12.0907029 L110.359184,14.7845805 L106.986848,14.7845805 Z M106.946939,26.3582766 L106.946939,16.0816327 L110.399093,16.0816327 L110.399093,26.3582766 L106.946939,26.3582766 Z M112.953288,26.3582766 L112.953288,16.0816327 L116.26576,16.0816327 L116.26576,16.9795918 L116.22585,17.6181406 L116.26576,17.6181406 C116.970827,16.4341589 118.061671,15.8421769 119.538322,15.8421769 C121.999408,15.8421769 123.229932,17.1259131 123.229932,19.693424 L123.229932,26.3582766 L119.777778,26.3582766 L119.777778,20.3319728 C119.777778,19.4273575 119.398643,18.9750567 118.640363,18.9750567 C117.616019,18.9750567 116.937568,19.4672664 116.604989,20.4517007 C116.471957,20.8374925 116.405442,21.2897933 116.405442,21.8086168 L116.405442,26.3582766 L112.953288,26.3582766 Z M126.921542,27.01678 C127.772945,27.4557845 128.73741,27.6752834 129.814966,27.6752834 C131.398043,27.6752834 132.189569,27.0167866 132.189569,25.6997732 L132.189569,25.3605442 L132.209524,24.9814059 L132.169615,24.9814059 C131.570972,25.6997768 130.712931,26.0589569 129.595465,26.0589569 C128.132117,26.0589569 126.994713,25.5534442 126.18322,24.5424036 C125.371727,23.531363 124.965986,22.3141417 124.965986,20.8907029 C124.965986,19.4805674 125.365075,18.2866262 126.163265,17.3088435 C126.961455,16.3310609 128.098859,15.8421769 129.57551,15.8421769 C130.134243,15.8421769 130.646407,15.9253204 131.112018,16.09161 C131.577629,16.2578995 131.903552,16.4208609 132.089796,16.5804989 L132.369161,16.8399093 L132.429025,16.8399093 C132.415722,16.7600903 132.40907,16.6802725 132.40907,16.6004535 L132.40907,16.0816327 L135.641723,16.0816327 L135.641723,25.4204082 C135.641723,26.3250234 135.475436,27.1165499 135.142857,27.7950113 C134.810278,28.4734728 134.357977,29.0089172 133.785941,29.4013605 C133.213905,29.7938039 132.598643,30.0831434 131.940136,30.2693878 C131.281629,30.4556321 130.579898,30.5487528 129.834921,30.5487528 C128.411482,30.5487528 127.114443,30.2427846 125.943764,29.630839 L126.921542,27.01678 Z M130.413605,23.1854875 C130.945732,23.1854875 131.388056,23.0158747 131.74059,22.676644 C132.093123,22.3374133 132.269388,21.7554085 132.269388,20.9306122 C132.269388,19.4539609 131.604239,18.7156463 130.273923,18.7156463 C129.688584,18.7156463 129.236283,18.9052135 128.917007,19.2843537 C128.597731,19.663494 128.438095,20.1590294 128.438095,20.7709751 C128.438095,21.4627397 128.604382,22.0380929 128.936961,22.4970522 C129.269541,22.9560114 129.76175,23.1854875 130.413605,23.1854875 Z M143.164626,26.3582766 L143.164626,12.0907029 L152.104308,12.0907029 L152.104308,15.0839002 L146.656689,15.0839002 L146.656689,17.6780045 L151.006803,17.6780045 L151.006803,20.6712018 L146.656689,20.6712018 L146.656689,23.3650794 L152.383673,23.3650794 L152.383673,26.3582766 L143.164626,26.3582766 Z M153.521088,26.3582766 L156.753741,21.2698413 L153.44127,16.0816327 L157.332426,16.0816327 L158.449887,18.3764172 L158.769161,19.0548753 L158.80907,19.0548753 L159.128345,18.3764172 L159.128345,18.3764172 L160.245805,16.0816327 L164.136961,16.0816327 L160.844444,21.2698413 L164.077098,26.3582766 L160.285714,26.3582766 L159.048526,24.0435374 L158.80907,23.5247166 L158.769161,23.5247166 L158.6638,23.7705581 C158.630809,23.8439911 158.599946,23.90891 158.571211,23.9653151 L157.312472,26.3582766 L153.521088,26.3582766 Z M165.63356,30.3492063 L165.63356,16.0816327 L168.746485,16.0816327 L168.746485,16.6004535 L168.706576,17.2589569 L168.746485,17.2589569 C168.773092,17.2190474 168.813,17.1691613 168.866213,17.1092971 L168.97128,17.0030081 C169.034266,16.9427371 169.118972,16.8650906 169.225397,16.770068 C169.411641,16.6037785 169.611186,16.4574458 169.824036,16.3310658 C170.036887,16.2046857 170.326226,16.0916105 170.692063,15.9918367 C171.057901,15.892063 171.447012,15.8421769 171.85941,15.8421769 C173.256243,15.8421769 174.377018,16.3377124 175.221769,17.3287982 C176.06652,18.319884 176.488889,19.6202489 176.488889,21.229932 C176.488889,22.839615 176.036588,24.1366542 175.131973,25.1210884 C174.227358,26.1055227 173.083302,26.5977324 171.699773,26.5977324 C171.207556,26.5977324 170.741952,26.5179146 170.302948,26.3582766 C169.863943,26.1986387 169.551324,26.0390031 169.365079,25.8793651 L169.085714,25.6199546 L169.045805,25.6199546 C169.072411,25.8594116 169.085714,26.1520769 169.085714,26.4979592 L169.085714,30.3492063 L165.63356,30.3492063 Z M168.985941,21.2897959 C168.985941,21.9549542 169.162205,22.5303075 169.514739,23.015873 C169.867273,23.5014386 170.362809,23.7442177 171.001361,23.7442177 C171.573397,23.7442177 172.052303,23.5247187 172.438095,23.0857143 C172.823887,22.6467098 173.01678,22.0480764 173.01678,21.2897959 C173.01678,20.5315155 172.830539,19.919579 172.45805,19.4539683 C172.085561,18.9883575 171.600003,18.7555556 171.001361,18.7555556 C170.429324,18.7555556 169.950418,18.968403 169.564626,19.3941043 C169.178834,19.8198056 168.985941,20.4516965 168.985941,21.2897959 Z M177.606349,21.2099773 C177.606349,19.6668101 178.091907,18.3863996 179.063039,17.3687075 C180.03417,16.3510153 181.331209,15.8421769 182.954195,15.8421769 C184.430846,15.8421769 185.59153,16.3044549 186.436281,17.2290249 C187.281032,18.1535949 187.703401,19.3475361 187.703401,20.8108844 L187.623583,21.8884354 L181.138322,21.8884354 C181.25805,22.4870778 181.540739,22.9427044 181.986395,23.2553288 C182.432051,23.5679532 182.947541,23.724263 183.53288,23.724263 C183.971884,23.724263 184.427511,23.6377938 184.899773,23.4648526 C185.372036,23.2919115 185.734541,23.1189729 185.987302,22.9460317 L186.36644,22.6866213 L187.643537,25.1011338 C187.523809,25.2075591 187.347545,25.3439145 187.114739,25.5102041 C186.881934,25.6764937 186.383073,25.8993183 185.618141,26.1786848 C184.853209,26.4580513 184.065008,26.5977324 183.253515,26.5977324 C181.5108,26.5977324 180.133943,26.0656138 179.122902,25.0013605 C178.111862,23.9371073 177.606349,22.6733255 177.606349,21.2099773 Z M181.218141,19.9129252 L184.231293,19.9129252 C184.231293,19.5138302 184.104914,19.1679531 183.852154,18.8752834 C183.599394,18.5826138 183.273471,18.4362812 182.874376,18.4362812 C182.009671,18.4362812 181.457598,18.9284909 181.218141,19.9129252 Z M189.579138,26.3582766 L189.579138,16.0816327 L192.89161,16.0816327 L192.89161,17.8176871 L192.851701,18.4562358 L192.89161,18.4562358 C193.117764,17.7378649 193.533481,17.1325799 194.138776,16.6403628 C194.74407,16.1481457 195.419195,15.9020408 196.164172,15.9020408 L196.563265,15.9419501 L196.563265,19.3342404 C196.377021,19.2943309 196.144219,19.2743764 195.864853,19.2743764 C194.481323,19.2743764 193.596676,19.8730099 193.210884,21.0702948 C193.091156,21.4560866 193.031293,21.9216904 193.031293,22.4671202 L193.031293,26.3582766 L189.579138,26.3582766 Z M198.678458,22.5668934 L198.678458,18.955102 L197.361451,18.955102 L197.361451,16.2612245 L198.778231,16.2612245 L198.778231,13.3079365 L202.130612,13.3079365 L202.130612,16.2612245 L204.285714,16.2612245 L204.285714,18.955102 L202.130612,18.955102 L202.130612,22.1079365 C202.130612,22.9859454 202.742549,23.4249433 203.96644,23.4249433 L204.425397,23.4049887 L204.425397,26.3981859 C204.172637,26.4380954 203.860017,26.4580499 203.487528,26.4580499 C203.168252,26.4580499 202.858958,26.4414212 202.559637,26.4081633 C202.260316,26.3749054 201.914439,26.3117163 201.521995,26.2185941 C201.129552,26.1254719 200.777023,25.9857908 200.464399,25.7995465 C200.151775,25.6133022 199.855784,25.383826 199.576417,25.1111111 C199.297051,24.8383962 199.077552,24.4825419 198.917914,24.0435374 C198.758276,23.604533 198.678458,23.1123232 198.678458,22.5668934 Z M205.64263,25.0811791 L207.119274,22.7664399 C207.199093,22.8462589 207.315494,22.9427054 207.468481,23.0557823 C207.621467,23.1688592 207.927435,23.3218433 208.386395,23.5147392 C208.845354,23.7076351 209.294329,23.8040816 209.733333,23.8040816 C210.411795,23.8040816 210.75102,23.644446 210.75102,23.3251701 C210.75102,23.1655321 210.584733,23.0092222 210.252154,22.8562358 L209.897405,22.6988157 C209.646124,22.590913 209.365282,22.4770981 209.054875,22.3573696 C208.589264,22.1777769 208.120335,21.9616037 207.648073,21.7088435 C207.17581,21.4560834 206.773395,21.0935776 206.440816,20.6213152 C206.108237,20.1490528 205.94195,19.6003055 205.94195,18.9750567 C205.94195,18.0305319 206.344365,17.2722629 207.149206,16.7002268 C207.954048,16.1281906 208.961748,15.8421769 210.172336,15.8421769 C210.624643,15.8421769 211.05699,15.8820858 211.469388,15.9619048 C211.881786,16.0417238 212.221012,16.1381703 212.487075,16.2512472 C212.753138,16.3643241 212.989266,16.480725 213.195465,16.6004535 C213.401664,16.720182 213.551322,16.8199542 213.644444,16.8997732 L213.784127,17.0195011 L212.606803,19.4739229 C212.526984,19.4074071 212.42056,19.3275893 212.287528,19.2344671 C212.154497,19.141345 211.875134,19.0182925 211.449433,18.8653061 C211.023732,18.7123197 210.598037,18.6358277 210.172336,18.6358277 C209.493874,18.6358277 209.154649,18.8021147 209.154649,19.1346939 C209.154649,19.2677255 209.320936,19.4040809 209.653515,19.5437642 C209.986094,19.6834474 210.385183,19.8397573 210.850794,20.0126984 C211.316404,20.1856396 211.785334,20.3951613 212.257596,20.6412698 C212.729859,20.8873784 213.132273,21.2465585 213.464853,21.7188209 C213.797432,22.1910832 213.963719,22.7331791 213.963719,23.3451247 C213.963719,24.2630431 213.581259,25.0346152 212.816327,25.6598639 C212.051395,26.2851127 211.030392,26.5977324 209.753288,26.5977324 C208.995008,26.5977324 208.273322,26.4713542 207.588209,26.2185941 C206.903096,25.965834 206.40756,25.7130776 206.101587,25.4603175 L205.64263,25.0811791 Z" id="BookingExperts" fill-rule="nonzero"></path>
        </g>
    </g>
</svg>