<?xml version="1.0" encoding="UTF-8"?>
<svg width="291px" height="45px" viewBox="0 0 291 45" version="1.1" xmlns="http://www.w3.org/2000/svg" xmlns:xlink="http://www.w3.org/1999/xlink">
    <!-- Generator: Sketch 59.1 (86144) - https://sketch.com -->
    <title>logo</title>
    <desc>Created with Sketch.</desc>
    <defs>
        <linearGradient x1="100%" y1="19.96875%" x2="0%" y2="80.03125%" id="linearGradient-1">
            <stop stop-color="#EE7F4B" offset="0%"></stop>
            <stop stop-color="#E9506E" offset="100%"></stop>
        </linearGradient>
    </defs>
    <g id="logo" stroke="none" stroke-width="1" fill="none" fill-rule="evenodd">
        <g id="Group">
            <path d="M39.0644752,0.00551993743 C41.4579909,-0.00938093295 41.336162,0.0101612243 41.3320449,0.0142149542 L41.3439692,0.0148773323 C43.0175672,0.0148773323 44.6911401,0.203136327 46.3647381,0.579659965 C48.0383362,0.956183603 49.5340919,1.58371359 50.8520504,2.46226874 C52.1700088,3.3408239 53.2369116,4.49129553 54.0527906,5.91371816 C54.8686697,7.3361408 55.2766031,9.11414241 55.2766031,11.2477764 C55.2766031,13.716098 54.5653346,15.7869469 53.1427762,17.4603853 C51.7202179,19.1338237 49.8374484,20.2842953 47.4944111,20.9118347 C48.9169695,21.2046858 50.2349081,21.570745 51.4482667,22.1355304 C52.6616253,22.7003159 53.7076084,23.4428931 54.5862473,24.3632842 C55.4648863,25.2836753 56.1447753,26.3713939 56.6259347,27.6264727 C57.1070941,28.8815515 57.3476703,30.2830351 57.3476703,31.8309656 C57.3476703,33.9645996 56.9083574,35.8262719 56.0297184,37.4160383 C55.1510794,39.0058048 54.4067641,40 52.4524205,41.33814 C48.1445731,44.2877251 42.6463059,44.4369885 40.764234,44.4441246 L11.7636247,44.4444444 C11.6680512,44.4444444 11.573333,44.4432856 11.4794746,44.4409851 L11.469401,44.440678 L11.469401,44.440678 L11.1763693,44.4444444 C5.00383097,44.4444444 -7.10542736e-15,39.4410908 -7.10542736e-15,33.2691412 C-7.10542736e-15,27.7346799 4.02354267,23.1398776 9.30535294,22.2497458 C8.84874031,21.1423345 8.59720714,19.9281804 8.59720714,18.6552831 C8.59720714,13.4328643 12.831218,9.19925731 18.054135,9.19925731 C20.1593406,9.19925731 22.1038825,9.88707498 23.6752538,11.0502238 C23.7983709,10.7353678 23.9308996,10.4042171 24.0721808,10.0588959 C26.9001581,3.14672045 33.8754772,0.00551994578 39.0644752,0.00551993743 Z" id="logo__icon" fill="url(#linearGradient-1)"></path>
            <path d="M77.3938272,35.8765432 L77.3938272,16.4567901 L84.537037,16.4567901 C86.5288165,16.4567901 88.126743,16.8958804 89.3308642,17.7740741 C90.5349854,18.6522678 91.137037,19.9061647 91.137037,21.5358025 C91.137037,22.3687284 90.9378621,23.1609016 90.5395062,23.9123457 C90.1411503,24.6637898 89.5888924,25.2477345 88.882716,25.6641975 L88.882716,25.7185185 C89.91482,26.026339 90.6798329,26.592177 91.1777778,27.4160494 C91.6757227,28.2399218 91.9246914,29.1316824 91.9246914,30.091358 C91.9246914,32.0650304 91.227579,33.522629 89.8333333,34.4641975 C88.4390877,35.405766 86.6736732,35.8765432 84.537037,35.8765432 L77.3938272,35.8765432 Z M82.1469136,23.9802469 L84.591358,23.9802469 C85.1526777,23.9802469 85.5781879,23.8082322 85.8679012,23.4641975 C86.1576146,23.1201629 86.3024691,22.6946527 86.3024691,22.1876543 C86.3024691,21.698763 86.1530879,21.3004131 85.854321,20.9925926 C85.5555541,20.6847721 85.1074104,20.5308642 84.5098765,20.5308642 L82.1469136,20.5308642 L82.1469136,23.9802469 Z M82.1469136,31.8024691 L84.9987654,31.8024691 C85.6506205,31.8024691 86.1576114,31.6078209 86.5197531,31.2185185 C86.8818948,30.8292162 87.062963,30.3448589 87.062963,29.7654321 C87.062963,29.1860053 86.8909482,28.7107014 86.5469136,28.3395062 C86.2028789,27.9683109 85.6958881,27.782716 85.0259259,27.782716 L82.1469136,27.782716 L82.1469136,31.8024691 Z M95.9987654,34.1925926 C94.4777702,32.8345611 93.717284,31.0782001 93.717284,28.9234568 C93.717284,26.7687135 94.4777702,25.0032991 95.9987654,23.6271605 C97.5197607,22.2510219 99.393816,21.562963 101.620988,21.562963 C103.866266,21.562963 105.753902,22.2464952 107.283951,23.6135802 C108.813999,24.9806653 109.579012,26.7506064 109.579012,28.9234568 C109.579012,31.0782001 108.818526,32.8300344 107.297531,34.1790123 C105.776536,35.5279903 103.893427,36.2024691 101.648148,36.2024691 C99.4028694,36.2024691 97.5197607,35.532517 95.9987654,34.1925926 Z M98.4703704,28.9234568 C98.4703704,29.9374536 98.7781862,30.7522603 99.3938272,31.3679012 C100.009468,31.9835422 100.760901,32.291358 101.648148,32.291358 C102.535395,32.291358 103.286828,31.9835422 103.902469,31.3679012 C104.51811,30.7522603 104.825926,29.9374536 104.825926,28.9234568 C104.825926,27.8913529 104.51811,27.0584394 103.902469,26.4246914 C103.286828,25.7909433 102.535395,25.4740741 101.648148,25.4740741 C100.760901,25.4740741 100.009468,25.7909433 99.3938272,26.4246914 C98.7781862,27.0584394 98.4703704,27.8913529 98.4703704,28.9234568 Z M113.27284,34.1925926 C111.751844,32.8345611 110.991358,31.0782001 110.991358,28.9234568 C110.991358,26.7687135 111.751844,25.0032991 113.27284,23.6271605 C114.793835,22.2510219 116.66789,21.562963 118.895062,21.562963 C121.14034,21.562963 123.027976,22.2464952 124.558025,23.6135802 C126.088073,24.9806653 126.853086,26.7506064 126.853086,28.9234568 C126.853086,31.0782001 126.0926,32.8300344 124.571605,34.1790123 C123.05061,35.5279903 121.167501,36.2024691 118.922222,36.2024691 C116.676944,36.2024691 114.793835,35.532517 113.27284,34.1925926 Z M115.744444,28.9234568 C115.744444,29.9374536 116.05226,30.7522603 116.667901,31.3679012 C117.283542,31.9835422 118.034975,32.291358 118.922222,32.291358 C119.809469,32.291358 120.560902,31.9835422 121.176543,31.3679012 C121.792184,30.7522603 122.1,29.9374536 122.1,28.9234568 C122.1,27.8913529 121.792184,27.0584394 121.176543,26.4246914 C120.560902,25.7909433 119.809469,25.4740741 118.922222,25.4740741 C118.034975,25.4740741 117.283542,25.7909433 116.667901,26.4246914 C116.05226,27.0584394 115.744444,27.8913529 115.744444,28.9234568 Z M129.297531,35.8765432 L129.297531,16.4567901 L133.996296,16.4567901 L133.996296,26.5061728 L135.32716,26.5061728 L138.097531,21.8888889 L143.203704,21.8888889 L139.102469,28.2444444 L139.102469,28.2987654 L143.774074,35.8765432 L138.423457,35.8765432 L135.462963,30.4444444 L133.996296,30.4444444 L133.996296,35.8765432 L129.297531,35.8765432 Z M145.620988,20.1234568 L145.620988,16.4567901 L150.211111,16.4567901 L150.211111,20.1234568 L145.620988,20.1234568 Z M145.566667,35.8765432 L145.566667,21.8888889 L150.265432,21.8888889 L150.265432,35.8765432 L145.566667,35.8765432 Z M153.741975,35.8765432 L153.741975,21.8888889 L158.250617,21.8888889 L158.250617,23.1111111 L158.196296,23.9802469 L158.250617,23.9802469 C159.210293,22.3687162 160.695052,21.562963 162.704938,21.562963 C166.054749,21.562963 167.72963,23.3102706 167.72963,26.8049383 L167.72963,35.8765432 L163.030864,35.8765432 L163.030864,27.6740741 C163.030864,26.4427922 162.51482,25.8271605 161.482716,25.8271605 C160.08847,25.8271605 159.165023,26.4971126 158.712346,27.837037 C158.531275,28.3621425 158.440741,28.9777742 158.440741,29.6839506 L158.440741,35.8765432 L153.741975,35.8765432 Z M172.754321,36.7728395 C173.913175,37.3703734 175.225919,37.6691358 176.692593,37.6691358 C178.847336,37.6691358 179.924691,36.7728485 179.924691,34.9802469 L179.924691,34.5185185 L179.951852,34.0024691 L179.897531,34.0024691 C179.082712,34.9802518 177.914822,35.4691358 176.393827,35.4691358 C174.402048,35.4691358 172.853915,34.7810768 171.749383,33.4049383 C170.64485,32.0287997 170.092593,30.3720261 170.092593,28.4345679 C170.092593,26.5152167 170.635797,24.8901301 171.722222,23.5592593 C172.808647,22.2283884 174.35678,21.562963 176.366667,21.562963 C177.127164,21.562963 177.824277,21.6761306 178.458025,21.9024691 C179.091773,22.1288077 179.53539,22.3506162 179.788889,22.5679012 L180.169136,22.9209877 L180.250617,22.9209877 C180.23251,22.8123451 180.223457,22.7037042 180.223457,22.5950617 L180.223457,21.8888889 L184.623457,21.8888889 L184.623457,34.6 C184.623457,35.8312819 184.397122,36.9086374 183.944444,37.8320988 C183.491767,38.7555602 182.876136,39.4843595 182.097531,40.0185185 C181.318926,40.5526776 180.481486,40.9465008 179.585185,41.2 C178.688884,41.4534992 177.73375,41.5802469 176.719753,41.5802469 C174.782295,41.5802469 173.01688,41.1637902 171.423457,40.3308642 L172.754321,36.7728395 Z M177.507407,31.5580247 C178.231691,31.5580247 178.833742,31.3271628 179.31358,30.8654321 C179.793418,30.4037014 180.033333,29.6115282 180.033333,28.4888889 C180.033333,26.4790023 179.127993,25.4740741 177.317284,25.4740741 C176.520572,25.4740741 175.90494,25.7320962 175.47037,26.2481481 C175.0358,26.7642001 174.818519,27.438679 174.818519,28.2716049 C174.818519,29.2131734 175.044854,29.9962932 175.497531,30.6209877 C175.950208,31.2456821 176.62016,31.5580247 177.507407,31.5580247 Z M194.862963,35.8765432 L194.862963,16.4567901 L207.030864,16.4567901 L207.030864,20.5308642 L199.616049,20.5308642 L199.616049,24.0617284 L205.537037,24.0617284 L205.537037,28.1358025 L199.616049,28.1358025 L199.616049,31.8024691 L207.411111,31.8024691 L207.411111,35.8765432 L194.862963,35.8765432 Z M208.959259,35.8765432 L213.359259,28.9506173 L208.850617,21.8888889 L214.146914,21.8888889 L215.667901,25.0123457 L216.102469,25.9358025 L216.15679,25.9358025 L216.591358,25.0123457 L216.591358,25.0123457 L218.112346,21.8888889 L223.408642,21.8888889 L218.92716,28.9506173 L223.32716,35.8765432 L218.166667,35.8765432 L216.482716,32.7259259 L216.15679,32.0197531 L216.102469,32.0197531 L215.959062,32.3543708 C215.914156,32.4543212 215.872148,32.542683 215.833037,32.6194566 L214.119753,35.8765432 L208.959259,35.8765432 Z M225.445679,41.308642 L225.445679,21.8888889 L229.682716,21.8888889 L229.682716,22.5950617 L229.628395,23.491358 L229.682716,23.491358 C229.71893,23.4370368 229.773251,23.3691362 229.845679,23.2876543 L229.988687,23.1429833 C230.074418,23.0609478 230.189711,22.9552623 230.334568,22.8259259 C230.588067,22.5995873 230.859669,22.4004124 231.149383,22.2283951 C231.439096,22.0563777 231.832919,21.9024698 232.330864,21.7666667 C232.828809,21.6308635 233.358433,21.562963 233.919753,21.562963 C235.820997,21.562963 237.346496,22.2374418 238.496296,23.5864198 C239.646096,24.9353977 240.220988,26.7053388 240.220988,28.8962963 C240.220988,31.0872538 239.605356,32.8526682 238.374074,34.1925926 C237.142792,35.532517 235.585606,36.2024691 233.702469,36.2024691 C233.032507,36.2024691 232.398768,36.0938282 231.801235,35.8765432 C231.203701,35.6592582 230.778191,35.4419764 230.524691,35.2246914 L230.144444,34.8716049 L230.090123,34.8716049 C230.126338,35.1975325 230.144444,35.5958824 230.144444,36.0666667 L230.144444,41.308642 L225.445679,41.308642 Z M230.008642,28.9777778 C230.008642,29.8831321 230.248557,30.6662518 230.728395,31.3271605 C231.208233,31.9880691 231.882712,32.3185185 232.751852,32.3185185 C233.530457,32.3185185 234.182302,32.0197561 234.707407,31.4222222 C235.232513,30.8246884 235.495062,30.0098817 235.495062,28.9777778 C235.495062,27.9456739 235.241566,27.1127604 234.734568,26.4790123 C234.227569,25.8452643 233.566671,25.5283951 232.751852,25.5283951 C231.973247,25.5283951 231.321402,25.8181041 230.796296,26.3975309 C230.271191,26.9769576 230.008642,27.8370313 230.008642,28.9777778 Z M241.741975,28.8691358 C241.741975,26.7687138 242.402874,25.0259329 243.724691,23.6407407 C245.046509,22.2555486 246.811923,21.562963 249.020988,21.562963 C251.030874,21.562963 252.610694,22.1921748 253.760494,23.4506173 C254.910294,24.7090598 255.485185,26.3341464 255.485185,28.3259259 L255.376543,29.7925926 L246.549383,29.7925926 C246.712346,30.6074115 247.097116,31.2275699 247.703704,31.6530864 C248.310291,32.078603 249.01193,32.291358 249.808642,32.291358 C250.406176,32.291358 251.026334,32.1736637 251.669136,31.9382716 C252.311937,31.7028795 252.805348,31.4674909 253.149383,31.2320988 L253.665432,30.8790123 L255.403704,34.1654321 C255.24074,34.3102888 255.000825,34.4958836 254.683951,34.7222222 C254.367077,34.9485608 253.688071,35.25185 252.646914,35.6320988 C251.605756,36.0123476 250.532927,36.2024691 249.428395,36.2024691 C247.056367,36.2024691 245.182311,35.4781965 243.806173,34.0296296 C242.430034,32.5810627 241.741975,30.8609153 241.741975,28.8691358 Z M246.658025,27.1037037 L250.759259,27.1037037 C250.759259,26.5604911 250.587245,26.0897139 250.24321,25.691358 C249.899175,25.2930021 249.455558,25.0938272 248.912346,25.0938272 C247.735385,25.0938272 246.983952,25.7637793 246.658025,27.1037037 Z M258.038272,35.8765432 L258.038272,21.8888889 L262.546914,21.8888889 L262.546914,24.2518519 L262.492593,25.1209877 L262.546914,25.1209877 C262.854734,24.143205 263.420572,23.3193449 264.244444,22.6493827 C265.068317,21.9794205 265.987238,21.6444444 267.001235,21.6444444 L267.544444,21.6987654 L267.544444,26.3160494 C267.290945,26.2617281 266.974076,26.2345679 266.593827,26.2345679 C264.71069,26.2345679 263.506587,27.0493746 262.981481,28.6790123 C262.818518,29.2041179 262.737037,29.8378564 262.737037,30.5802469 L262.737037,35.8765432 L258.038272,35.8765432 Z M270.423457,30.7160494 L270.423457,25.8 L268.630864,25.8 L268.630864,22.1333333 L270.559259,22.1333333 L270.559259,18.1135802 L275.122222,18.1135802 L275.122222,22.1333333 L278.055556,22.1333333 L278.055556,25.8 L275.122222,25.8 L275.122222,30.091358 C275.122222,31.2864257 275.955136,31.8839506 277.620988,31.8839506 L278.245679,31.8567901 L278.245679,35.9308642 C277.901644,35.9851855 277.476134,36.0123457 276.969136,36.0123457 C276.534566,36.0123457 276.113582,35.9897122 275.706173,35.9444444 C275.298763,35.8991767 274.827986,35.8131694 274.293827,35.6864198 C273.759668,35.5596701 273.279838,35.3695486 272.854321,35.1160494 C272.428804,34.8625502 272.025928,34.5502076 271.645679,34.1790123 C271.26543,33.8078171 270.966668,33.3234598 270.749383,32.7259259 C270.532098,32.1283921 270.423457,31.4584399 270.423457,30.7160494 Z M279.902469,34.1382716 L281.912346,30.9876543 C282.020988,31.0962968 282.179423,31.2275712 282.387654,31.3814815 C282.595886,31.5353917 283.012343,31.7436201 283.637037,32.0061728 C284.261732,32.2687256 284.872837,32.4 285.47037,32.4 C286.393832,32.4 286.855556,32.1827182 286.855556,31.7481481 C286.855556,31.5308631 286.62922,31.318108 286.176543,31.1098765 L285.69369,30.8956102 C285.351669,30.7487427 284.969412,30.593828 284.546914,30.4308642 C283.913166,30.1864185 283.2749,29.8921828 282.632099,29.5481481 C281.989297,29.2041135 281.441566,28.7107028 280.988889,28.0679012 C280.536212,27.4250997 280.309877,26.6781936 280.309877,25.8271605 C280.309877,24.5415574 280.857608,23.5094689 281.953086,22.7308642 C283.048565,21.9522595 284.420156,21.562963 286.067901,21.562963 C286.683542,21.562963 287.272014,21.6172834 287.833333,21.7259259 C288.394653,21.8345684 288.856377,21.9658429 289.218519,22.1197531 C289.58066,22.2736633 289.902056,22.432098 290.182716,22.5950617 C290.463376,22.7580255 290.667078,22.8938266 290.793827,23.0024691 L290.983951,23.1654321 L289.381481,26.5061728 C289.272839,26.4156374 289.127984,26.3069965 288.946914,26.1802469 C288.765843,26.0534973 288.3856,25.8860093 287.806173,25.6777778 C287.226746,25.4695463 286.647328,25.3654321 286.067901,25.3654321 C285.14444,25.3654321 284.682716,25.5917673 284.682716,26.0444444 C284.682716,26.2255153 284.909051,26.4111102 285.361728,26.6012346 C285.814406,26.791359 286.35761,27.004114 286.991358,27.2395062 C287.625106,27.4748983 288.263371,27.7600806 288.906173,28.0950617 C289.548974,28.4300428 290.096706,28.9189268 290.549383,29.5617284 C291.00206,30.20453 291.228395,30.9423827 291.228395,31.7753086 C291.228395,33.0246976 290.707824,34.0748929 289.666667,34.9259259 C288.625509,35.776959 287.235811,36.2024691 285.497531,36.2024691 C284.465427,36.2024691 283.483132,36.0304544 282.550617,35.6864198 C281.618102,35.3423851 280.943623,34.9983556 280.52716,34.654321 L279.902469,34.1382716 Z" id="BookingExperts" fill="#3A3A3A" fill-rule="nonzero"></path>
        </g>
    </g>
</svg>